<?xml version="1.0" encoding="UTF-8"?>
<svg version="1.1" xmlns="http://www.w3.org/2000/svg" width="1024" height="1024">
<path d="M0 0 C337.92 0 675.84 0 1024 0 C1024 337.92 1024 675.84 1024 1024 C686.08 1024 348.16 1024 0 1024 C0 686.08 0 348.16 0 0 Z " fill="#FEFEFE" transform="translate(0,0)"/>
<path d="M0 0 C0.66118835 0.00376648 1.32237671 0.00753296 2.00360107 0.01141357 C38.75599189 0.25667366 70.78270045 12.53258647 96.85253906 38.79296875 C109.94754943 52.44618711 119.40128492 69.30520262 125.5625 87.125 C125.79267822 87.77025635 126.02285645 88.4155127 126.26000977 89.08032227 C131.36862662 104.70965501 131.67836536 120.77504568 131.59057617 137.03955078 C131.58972788 139.26877837 131.59020897 141.49800679 131.59190369 143.72723389 C131.59275719 149.72191982 131.57523687 155.71642215 131.55418181 161.71106577 C131.53530647 167.99705456 131.53365607 174.28304852 131.53010559 180.56906128 C131.52186924 191.10124639 131.50318732 201.6333754 131.47631836 212.16552734 C131.44869686 223.00406568 131.42750313 233.84258583 131.41479492 244.68115234 C131.41400675 245.35148432 131.41321858 246.0218163 131.41240653 246.71246137 C131.40849085 250.07598994 131.40469986 253.43951864 131.40097082 256.80304742 C131.36969363 284.61874614 131.31638421 312.43436481 131.25 340.25 C142.14 340.25 153.03 340.25 164.25 340.25 C164.25 348.5 164.25 356.75 164.25 365.25 C57.33 365.25 -49.59 365.25 -159.75 365.25 C-159.75 357 -159.75 348.75 -159.75 340.25 C-148.86 340.25 -137.97 340.25 -126.75 340.25 C-126.75888245 337.46306702 -126.76776489 334.67613403 -126.7769165 331.80474854 C-126.85673758 306.16923111 -126.91633805 280.53372834 -126.95426132 254.8981135 C-126.95926335 251.52908064 -126.96444071 248.16004806 -126.96972656 244.79101562 C-126.9707758 244.1203829 -126.97182505 243.44975017 -126.97290608 242.75879523 C-126.99024821 231.94082903 -127.02175118 221.12294901 -127.05861118 210.30503371 C-127.09619399 199.18110405 -127.11797338 188.05720921 -127.12635398 176.93321776 C-127.1315435 170.69501931 -127.14363797 164.45701545 -127.17292023 158.2188797 C-127.20032581 152.33214152 -127.20839477 146.44567577 -127.20243073 140.55887985 C-127.20351982 138.41288898 -127.21132228 136.26688778 -127.2268219 134.12095261 C-127.44691857 102.04049488 -118.84793473 71.10458138 -97.75 46.25 C-97.03328125 45.39535156 -96.3165625 44.54070312 -95.578125 43.66015625 C-71.20102106 15.60919799 -37.18769412 -0.27889589 0 0 Z " fill="#12554B" transform="translate(509.75,188.75)"/>
<path d="M0 0 C19.28718467 16.83567421 30.2319253 37.1300616 35.48828125 61.9140625 C35.66578635 62.62192492 35.84329145 63.32978735 36.0261755 64.05910015 C36.67305013 68.05559381 36.62227407 71.97719536 36.60853577 76.01924133 C36.6098174 77.39772311 36.6098174 77.39772311 36.61112493 78.80405301 C36.61277235 81.88411831 36.6072704 84.96412917 36.60180664 88.04418945 C36.60152458 90.25179544 36.60168286 92.45940152 36.60224915 94.66700745 C36.6025364 100.66239613 36.59665127 106.65776485 36.58967519 112.65314889 C36.5834297 118.9178687 36.5828369 125.18258896 36.58164978 131.4473114 C36.57889346 141.9630058 36.57264455 152.47869402 36.5637207 162.99438477 C36.55453935 173.82478804 36.54746205 184.65518932 36.54321289 195.4855957 C36.54295017 196.1533691 36.54268744 196.82114249 36.54241676 197.50915144 C36.54111171 200.85923021 36.539848 204.209309 36.53860486 207.5593878 C36.52814846 235.34428464 36.51035472 263.12917267 36.48828125 290.9140625 C25.59828125 290.9140625 14.70828125 290.9140625 3.48828125 290.9140625 C3.48828125 212.0440625 3.48828125 133.1740625 3.48828125 51.9140625 C-43.37171875 51.9140625 -90.23171875 51.9140625 -138.51171875 51.9140625 C-138.51171875 130.7840625 -138.51171875 209.6540625 -138.51171875 290.9140625 C-149.07171875 290.9140625 -159.63171875 290.9140625 -170.51171875 290.9140625 C-170.60234196 262.41239657 -170.67386355 233.91076212 -170.71598007 205.40898002 C-170.72098227 202.03608084 -170.72615962 198.66318195 -170.73144531 195.2902832 C-170.73249455 194.61886354 -170.7335438 193.94744388 -170.73462483 193.25567817 C-170.75198044 182.4162859 -170.78349107 171.5769794 -170.82032993 160.73763783 C-170.85787482 149.59677242 -170.87968411 138.45594175 -170.88807273 127.31501478 C-170.8932687 121.06517512 -170.90540499 114.81552931 -170.93463898 108.56575203 C-170.96198343 102.67163628 -170.97012553 96.77779247 -170.96414948 90.88361931 C-170.96524125 88.73153069 -170.97308073 86.57943205 -170.98854065 84.42739868 C-171.20194199 53.16277504 -161.58017683 27.50463705 -139.63671875 4.7265625 C-125.83927233 -8.66942683 -109.02258574 -17.32314145 -90.51171875 -22.0859375 C-89.61839844 -22.33085937 -88.72507812 -22.57578125 -87.8046875 -22.828125 C-57.4819323 -29.79997108 -23.53317463 -19.54388064 0 0 Z " fill="#FEFEFE" transform="translate(579.51171875,238.0859375)"/>
<path d="M0 0 C32.01 0 64.02 0 97 0 C97 70.95 97 141.9 97 215 C88.42 215 79.84 215 71 215 C71 195.86 71 176.72 71 157 C56.15 157 41.3 157 26 157 C26 176.14 26 195.28 26 215 C17.42 215 8.84 215 0 215 C0 144.05 0 73.1 0 0 Z " fill="#FCFDFD" transform="translate(464,314)"/>
<path d="M0 0 C5.94 0 11.88 0 18 0 C21.06475194 3.11328029 21.63018365 4.14958434 23 8 C24.03897774 9.88775361 25.10777951 11.75927232 26.19921875 13.6171875 C27.36402075 15.70198565 28.52673903 17.78794921 29.6875 19.875 C30.24888672 20.88046875 30.81027344 21.8859375 31.38867188 22.921875 C36.60660618 32.27334608 41.79939518 41.63891132 47 51 C47.33 34.17 47.66 17.34 48 0 C53.28 0 58.56 0 64 0 C64 25.74 64 51.48 64 78 C57.73 78 51.46 78 45 78 C44.09378906 76.3809375 43.18757812 74.761875 42.25390625 73.09375 C41.66802734 72.04727295 41.08214844 71.0007959 40.47851562 69.92260742 C39.19434597 67.62867593 37.91049512 65.33456595 36.62695312 63.0402832 C33.85466245 58.08701663 31.08210964 53.13418659 28.27734375 48.19921875 C27.88538818 47.50828125 27.49343262 46.81734375 27.08959961 46.10546875 C26.08284973 44.33333631 25.0728211 42.56306761 24.0625 40.79296875 C21.23892053 35.60036333 18.64332185 30.2866437 16 25 C15.67 42.16 15.34 59.32 15 77 C10.05 77 5.1 77 0 77 C0 51.59 0 26.18 0 0 Z " fill="#2D2D2E" transform="translate(703,602)"/>
<path d="M0 0 C7.83470723 4.12130919 7.83470723 4.12130919 9.17578125 8.14453125 C7.7421875 10.625 7.7421875 10.625 5.73828125 13.33203125 C5.07957031 14.23308594 4.42085937 15.13414062 3.7421875 16.0625 C3.22527344 16.74957031 2.70835937 17.43664062 2.17578125 18.14453125 C-0.6918309 17.01709399 -3.4732226 15.83772943 -6.26171875 14.51953125 C-12.93748719 12.06669209 -20.78419857 11.84223248 -27.55078125 14.0234375 C-33.84123509 17.21074103 -37.10530521 21.62485115 -40.13671875 27.83203125 C-41.78752549 35.78591827 -42.00069182 44.92559435 -37.82421875 52.14453125 C-33.43603077 57.10261378 -28.72811387 60.83073042 -21.95703125 61.375 C-20.46816406 61.35373047 -20.46816406 61.35373047 -18.94921875 61.33203125 C-17.96179688 61.32558594 -16.974375 61.31914063 -15.95703125 61.3125 C-12.56193966 61.1304689 -9.19001533 60.62535933 -5.82421875 60.14453125 C-5.82421875 54.86453125 -5.82421875 49.58453125 -5.82421875 44.14453125 C-10.11421875 44.14453125 -14.40421875 44.14453125 -18.82421875 44.14453125 C-18.82421875 39.85453125 -18.82421875 35.56453125 -18.82421875 31.14453125 C-9.25421875 31.14453125 0.31578125 31.14453125 10.17578125 31.14453125 C10.38310205 36.16630186 10.56185697 41.17314916 10.67016602 46.19580078 C10.71530543 47.90139129 10.77663849 49.60663577 10.85473633 51.31103516 C11.48633084 65.45379864 11.48633084 65.45379864 8.3125 69.54833984 C5.97866864 71.13249572 3.81901738 72.17830746 1.17578125 73.14453125 C0.26570312 73.62664062 -0.644375 74.10875 -1.58203125 74.60546875 C-13.5020177 79.20823579 -25.57606891 78.16204098 -37.1171875 73.1484375 C-46.07334327 68.69348222 -53.27791337 61.549098 -56.82421875 52.14453125 C-57.23671875 51.11328125 -57.64921875 50.08203125 -58.07421875 49.01953125 C-60.60201857 35.95923218 -58.61016281 24.58500261 -51.47265625 13.4609375 C-40.06568718 -2.56828681 -17.98231174 -7.91445447 0 0 Z " fill="#2C2C2E" transform="translate(841.82421875,603.85546875)"/>
<path d="M0 0 C6.69648705 -1.46846823 13.50111086 -2.76336327 20 0 C26.76096882 6.58222272 30.9505591 15.58014869 35 24 C37.50922495 21.69871674 39.15777033 19.29507503 40.8828125 16.3671875 C41.41003906 15.47902344 41.93726563 14.59085938 42.48046875 13.67578125 C43.29451172 12.28939453 43.29451172 12.28939453 44.125 10.875 C45.20972002 9.03834292 46.29559527 7.20236745 47.3828125 5.3671875 C47.86121582 4.55362793 48.33961914 3.74006836 48.83251953 2.90185547 C50 1 50 1 51 0 C52.4887186 -0.08669432 53.981445 -0.10703494 55.47265625 -0.09765625 C56.37177734 -0.09443359 57.27089844 -0.09121094 58.19726562 -0.08789062 C59.61555664 -0.07532227 59.61555664 -0.07532227 61.0625 -0.0625 C62.01189453 -0.05798828 62.96128906 -0.05347656 63.93945312 -0.04882812 C66.29303065 -0.0370011 68.64648477 -0.02052025 71 0 C67.68476572 5.30034417 64.34807077 10.57353501 60.75 15.6875 C60.18796875 16.48800781 59.6259375 17.28851562 59.046875 18.11328125 C57.90510702 19.72352273 56.76020923 21.33159877 55.60351562 22.93115234 C54.05770964 25.07123265 52.52850588 27.22254 51 29.375 C50.49436523 30.06553467 49.98873047 30.75606934 49.46777344 31.4675293 C49.0040332 32.125354 48.54029297 32.78317871 48.0625 33.4609375 C47.64097656 34.04665527 47.21945312 34.63237305 46.78515625 35.23583984 C45.74099818 37.58194874 46.0961312 38.63081689 47 41 C48.50993296 43.39243747 50.05424655 45.6946164 51.6875 48 C52.16356689 48.68263916 52.63963379 49.36527832 53.13012695 50.06860352 C54.74689971 52.38371037 56.37280891 54.69220495 58 57 C59.92745141 59.73935049 61.85394362 62.47936306 63.77856445 65.22070312 C65.04251551 67.01955814 66.30924413 68.81646498 67.57885742 70.61132812 C68.44281128 71.83819336 68.44281128 71.83819336 69.32421875 73.08984375 C69.84072998 73.82066162 70.35724121 74.55147949 70.8894043 75.30444336 C72 77 72 77 72 78 C65.41778826 79.06882351 58.46408318 80.02178881 52 78 C47.23869552 74.23371977 44.67814752 68.63226732 42.12158203 63.24609375 C40.61229407 60.22357541 38.79789522 57.44224236 36.93334961 54.62890625 C36 53 36 53 36 51 C35.34 51 34.68 51 34 51 C33.79503906 51.77730469 33.59007812 52.55460938 33.37890625 53.35546875 C31.47855255 58.37821663 28.737297 62.74441016 25.9375 67.3125 C25.38255859 68.23095703 24.82761719 69.14941406 24.25585938 70.09570312 C20.16870301 76.83129699 20.16870301 76.83129699 19 78 C17.5112814 78.08669432 16.018555 78.10703494 14.52734375 78.09765625 C13.62822266 78.09443359 12.72910156 78.09121094 11.80273438 78.08789062 C10.38444336 78.07532227 10.38444336 78.07532227 8.9375 78.0625 C7.98810547 78.05798828 7.03871094 78.05347656 6.06054688 78.04882812 C3.70696935 78.0370011 1.35351523 78.02052025 -1 78 C3.10471884 71.30815204 7.46392464 64.84182813 12 58.4375 C12.5161084 57.7050708 13.0322168 56.9726416 13.56396484 56.21801758 C15.7966553 53.05970711 18.04867667 49.93633979 20.3984375 46.86328125 C21.05070312 46.00089844 21.70296875 45.13851562 22.375 44.25 C23.22191406 43.17492187 23.22191406 43.17492187 24.0859375 42.078125 C25.2814474 39.98499466 25.2814474 39.98499466 24.24316406 37.66137695 C23.0155475 35.03328424 21.64624094 32.74168247 20.0234375 30.33984375 C19.43844482 29.46884033 18.85345215 28.59783691 18.25073242 27.70043945 C17.63174072 26.78866943 17.01274902 25.87689941 16.375 24.9375 C15.74634033 24.00317139 15.11768066 23.06884277 14.4699707 22.10620117 C13.22058381 20.24957845 11.96940474 18.3941603 10.71630859 16.54003906 C8.5298724 13.3042379 6.35647234 10.06003236 4.1875 6.8125 C3.58292969 5.91144531 2.97835938 5.01039063 2.35546875 4.08203125 C1 2 1 2 0 0 Z " fill="#2E2E2F" transform="translate(361,602)"/>
<path d="M0 0 C5.61 0 11.22 0 17 0 C19.61490107 7.13720521 22.15727482 14.29104851 24.6015625 21.48828125 C24.92410004 22.43511276 25.24663757 23.38194427 25.57894897 24.35746765 C26.59535898 27.34211895 27.61018411 30.32730636 28.625 33.3125 C29.31240031 35.33141415 29.99989952 37.35029464 30.6875 39.36914062 C36.03559941 55.07831988 36.03559941 55.07831988 38 61 C39.74168845 55.50891864 41.48321596 50.01778626 43.22460938 44.52661133 C43.81408592 42.66787415 44.40360259 40.8091497 44.99316406 38.95043945 C45.5659855 37.14448791 46.13871889 35.33850844 46.71136475 33.53250122 C47.28411157 31.726617 47.85723187 29.92085118 48.4307251 28.11520386 C49.87638535 23.56028049 51.31310474 19.0028436 52.73339844 14.43994141 C53.14608475 13.11866997 53.14608475 13.11866997 53.56710815 11.77070618 C54.09014714 10.09474498 54.61069987 8.4180053 55.12844849 6.74040222 C56.88810363 1.11189637 56.88810363 1.11189637 58 0 C60.86267567 -0.07325168 63.700719 -0.09238205 66.5625 -0.0625 C67.36880859 -0.05798828 68.17511719 -0.05347656 69.00585938 -0.04882812 C71.00393756 -0.03700518 73.00197783 -0.01906914 75 0 C73.70299175 6.32641718 72.00599316 12.29248167 69.83984375 18.37109375 C69.53366119 19.24364807 69.22747864 20.11620239 68.91201782 21.01519775 C67.92519943 23.8243069 66.93138664 26.63088486 65.9375 29.4375 C65.25783366 31.36870353 64.57871832 33.30010107 63.90014648 35.23168945 C62.55741978 39.05292495 61.21258274 42.87340679 59.86621094 46.69335938 C57.40531462 53.68234249 54.98006113 60.68342107 52.5625 67.6875 C51.386875 71.090625 50.21125 74.49375 49 78 C41.41 78 33.82 78 26 78 C24.96101562 74.94363281 23.92203125 71.88726563 22.8515625 68.73828125 C21.8115223 65.68006991 20.77126278 62.62193327 19.73095703 59.56381226 C18.99579912 57.40258188 18.2607723 55.24130691 17.52587891 53.07998657 C12.15180187 37.27463219 12.15180187 37.27463219 6.7109375 21.4921875 C6.47267242 20.805233 6.23440735 20.1182785 5.98892212 19.4105072 C4.91185661 16.30703639 3.83093157 13.20498751 2.74462891 10.10473633 C2.37515137 9.04279053 2.00567383 7.98084473 1.625 6.88671875 C1.30789063 5.98139404 0.99078125 5.07606934 0.6640625 4.14331055 C0 2 0 2 0 0 Z " fill="#2E2E2F" transform="translate(576,602)"/>
<path d="M0 0 C15.51 0 31.02 0 47 0 C47 4.95 47 9.9 47 15 C36.77 15 26.54 15 16 15 C16 20.94 16 26.88 16 33 C24.25 33 32.5 33 41 33 C41 37.29 41 41.58 41 46 C32.75 46 24.5 46 16 46 C16 51.61 16 57.22 16 63 C26.23 63 36.46 63 47 63 C47 67.95 47 72.9 47 78 C31.49 78 15.98 78 0 78 C0 52.26 0 26.52 0 0 Z " fill="#2C2B2D" transform="translate(299,602)"/>
<path d="M0 0 C16.17 0 32.34 0 49 0 C49 4.95 49 9.9 49 15 C38.11 15 27.22 15 16 15 C16 20.94 16 26.88 16 33 C25.24 33 34.48 33 44 33 C44 37.29 44 41.58 44 46 C34.76 46 25.52 46 16 46 C16 56.23 16 66.46 16 77 C10.72 77 5.44 77 0 77 C0 51.59 0 26.18 0 0 Z " fill="#2F2F31" transform="translate(174,602)"/>
<path d="M0 0 C5.61 0 11.22 0 17 0 C17 20.79 17 41.58 17 63 C26.57 63 36.14 63 46 63 C46 67.95 46 72.9 46 78 C30.82 78 15.64 78 0 78 C0 52.26 0 26.52 0 0 Z " fill="#353536" transform="translate(238,602)"/>
<path d="M0 0 C5.28 0 10.56 0 16 0 C16 20.79 16 41.58 16 63 C25.24 63 34.48 63 44 63 C44 67.62 44 72.24 44 77 C29.48 77 14.96 77 0 77 C0 51.59 0 26.18 0 0 Z " fill="#2A2A2C" transform="translate(483,602)"/>
<path d="M0 0 C1.20269531 -0.02578125 2.40539062 -0.0515625 3.64453125 -0.078125 C10.08726912 0.51855635 13.99477505 3.49069059 18.1875 8.25 C21.90210974 13.68924998 22.98655102 18.6662698 22.1875 25.25 C20.38525115 32.0161571 18.09133071 36.42987425 12.1875 40.25 C5.85984953 43.77888199 -0.2676086 44.47755909 -7.2421875 42.59375 C-13.95474841 39.97200904 -18.09483413 35.84148318 -21.1875 29.375 C-22.61454584 22.2397708 -22.38243724 15.72405285 -18.8125 9.25 C-13.11603815 2.6771594 -8.70156918 0.11120216 0 0 Z " fill="#2A2A2C" transform="translate(666.8125,711.75)"/>
<path d="M0 0 C5.61 0 11.22 0 17 0 C17 25.74 17 51.48 17 78 C11.39 78 5.78 78 0 78 C0 52.26 0 26.52 0 0 Z " fill="#323233" transform="translate(544,602)"/>
<path d="M0 0 C5.28 0 10.56 0 16 0 C16 25.74 16 51.48 16 78 C10.72 78 5.44 78 0 78 C0 52.26 0 26.52 0 0 Z " fill="#313133" transform="translate(666,602)"/>
<path d="M0 0 C20.21212121 0 20.21212121 0 25.875 4.0625 C28.70228703 7.97080855 29.30374084 11.21608176 29 16 C27.66018595 19.61749795 26.1287767 22.65341748 23 25 C22.01 25 21.02 25 20 25 C20.77085937 25.97582031 21.54171875 26.95164062 22.3359375 27.95703125 C23.34901695 29.24214129 24.36203456 30.52730009 25.375 31.8125 C25.88289062 32.45509766 26.39078125 33.09769531 26.9140625 33.75976562 C27.40390625 34.38173828 27.89375 35.00371094 28.3984375 35.64453125 C28.84880371 36.21534424 29.29916992 36.78615723 29.76318359 37.37426758 C30.90263341 38.87201655 31.95610229 40.43415344 33 42 C29.54586706 42.50039753 26.44118716 42.65307202 23 42 C18.98055039 38.96844514 16.47483866 34.80271305 13.875 30.5625 C12.0170898 27.41794146 12.0170898 27.41794146 7 27 C7 31.95 7 36.9 7 42 C4.69 42 2.38 42 0 42 C0 28.14 0 14.28 0 0 Z " fill="#282829" transform="translate(601,712)"/>
<path d="M0 0 C20 0 20 0 26 4 C28.97083662 8.45625493 28.62649579 12.77410826 28 18 C26.23991563 21.14300781 25.33669405 22.61460281 21.859375 23.6171875 C21.24578125 23.74351562 20.6321875 23.86984375 20 24 C20.77085937 24.97582031 21.54171875 25.95164062 22.3359375 26.95703125 C23.34901695 28.24214129 24.36203456 29.52730009 25.375 30.8125 C25.88289063 31.45509766 26.39078125 32.09769531 26.9140625 32.75976562 C27.40390625 33.38173828 27.89375 34.00371094 28.3984375 34.64453125 C28.84880371 35.21534424 29.29916992 35.78615723 29.76318359 36.37426758 C30.90263341 37.87201655 31.95610229 39.43415344 33 41 C29.04283418 41.94791424 25.92531528 42.17462086 22 41 C19.2814527 38.40374998 17.35105698 35.28255049 15.43798828 32.06787109 C14.38484043 30.31918914 13.19748844 28.65318796 12 27 C10.35 26.67 8.7 26.34 7 26 C7 30.95 7 35.9 7 41 C4.69 41 2.38 41 0 41 C0 27.47 0 13.94 0 0 Z " fill="#272728" transform="translate(219,713)"/>
<path d="M0 0 C2.97 0 5.94 0 9 0 C11.28079024 5.81988214 13.5593937 11.64061368 15.8359375 17.4621582 C16.61137173 19.4441668 17.38741252 21.42593819 18.1640625 23.4074707 C19.2776228 26.24889593 20.38902845 29.09115552 21.5 31.93359375 C21.84998047 32.82525742 22.19996094 33.71692108 22.56054688 34.63560486 C22.88087891 35.45638016 23.20121094 36.27715546 23.53125 37.12280273 C23.81548828 37.84894272 24.09972656 38.5750827 24.39257812 39.32322693 C25 41 25 41 25 42 C22.03 42 19.06 42 16 42 C15.34 39.03 14.68 36.06 14 33 C7.73 33 1.46 33 -5 33 C-5.99 35.97 -6.98 38.94 -8 42 C-10.64 42 -13.28 42 -16 42 C-13.64578738 33.22971069 -10.28134385 24.89815665 -6.875 16.5 C-6.31862756 15.1173415 -5.76263532 13.73452994 -5.20703125 12.3515625 C-1.19843665 2.39687329 -1.19843665 2.39687329 0 0 Z " fill="#282829" transform="translate(280,712)"/>
<path d="M0 0 C20.64285714 0 20.64285714 0 26.9375 5.625 C29.58113867 9.95095419 29.94827956 13.05476638 29 18 C27.24679212 21.6412779 25.68363505 23.49977923 22.4375 25.875 C17.50617958 27.48888668 13.17850193 27.18945739 8 27 C8 31.95 8 36.9 8 42 C5.36 42 2.72 42 0 42 C0 28.14 0 14.28 0 0 Z " fill="#2B2B2C" transform="translate(174,712)"/>
<path d="M0 0 C19.63157895 0 19.63157895 0 25 4 C27.90304607 7.26592683 28.89568385 9.16547078 29.4375 13.5 C28.84348952 18.25208386 27.58576214 21.56290306 24 24.8125 C18.89734517 27.8422013 13.76421081 27.06781424 8 27 C8 31.95 8 36.9 8 42 C5.36 42 2.72 42 0 42 C0 28.14 0 14.28 0 0 Z " fill="#2C2B2D" transform="translate(556,712)"/>
<path d="M0 0 C10.56 0 21.12 0 32 0 C32 0.33 32 0.66 32 1 C22.1 1 12.2 1 2 1 C2 8.26 2 15.52 2 23 C107.6 23 213.2 23 322 23 C322 15.74 322 8.48 322 1 C312.43 1 302.86 1 293 1 C293 0.67 293 0.34 293 0 C303.23 0 313.46 0 324 0 C324 8.25 324 16.5 324 25 C217.08 25 110.16 25 0 25 C0 16.75 0 8.5 0 0 Z " fill="#2B5B51" transform="translate(350,529)"/>
<path d="M0 0 C3.76292473 1.60124457 5.84097382 3.54555811 8 7 C9.63509159 11.90527476 9.39374496 15.77731827 7.8125 20.6875 C5.35394428 25.18072252 2.84695121 27.3843496 -2 29 C-7.71592544 29.53923825 -10.55802329 28.63434458 -15 25 C-18.3340495 21.32104883 -18.88903764 18.49799182 -19.25 13.625 C-18.87782825 8.22850968 -17.39712254 5.29489406 -13.4375 1.625 C-8.83706309 -0.54975199 -5.00658926 -0.6948945 0 0 Z " fill="#FAFAFA" transform="translate(672,719)"/>
<path d="M0 0 C8.25 0 16.5 0 25 0 C25 2.31 25 4.62 25 7 C19.39 7 13.78 7 8 7 C8 10.63 8 14.26 8 18 C12.29 18 16.58 18 21 18 C21 19.98 21 21.96 21 24 C16.71 24 12.42 24 8 24 C8 27.63 8 31.26 8 35 C13.61 35 19.22 35 25 35 C25 37.31 25 39.62 25 42 C16.75 42 8.5 42 0 42 C0 28.14 0 14.28 0 0 Z " fill="#2E2D2F" transform="translate(739,712)"/>
<path d="M0 0 C1.28648437 -0.01675781 2.57296875 -0.03351562 3.8984375 -0.05078125 C7.81649454 0.33116771 10.25501614 1.33537324 13.625 3.3125 C13.625 6.3125 13.625 6.3125 11.625 9.3125 C10.91214844 9.15394531 10.19929687 8.99539063 9.46484375 8.83203125 C3.39262797 7.72115821 -2.29030343 7.32501215 -7.9375 10 C-11.80439335 13.66859113 -12.47238839 16.62400792 -12.6875 21.8125 C-12.57536046 25.79015533 -12.03320496 28.21126088 -9.375 31.3125 C-6.18141126 33.9980178 -4.15476004 35.21141999 0 35.75 C4.3192557 35.22871052 7.62202957 33.99796123 11.625 32.3125 C14.625 35.9375 14.625 35.9375 14.625 39.3125 C8.01487544 42.96847013 2.17013613 44.52226866 -5.375 43.3125 C-12.5004589 41.02181193 -16.6705788 37.76536274 -20.375 31.3125 C-22.37454039 25.31387882 -22.62968158 17.7225267 -20.43359375 11.75390625 C-15.53325192 3.62763406 -9.37318274 0.02806342 0 0 Z " fill="#2A2A2B" transform="translate(799.375,711.6875)"/>
<path d="M0 0 C8.25 0 16.5 0 25 0 C25 2.31 25 4.62 25 7 C19.06 7 13.12 7 7 7 C7 10.63 7 14.26 7 18 C11.95 18 16.9 18 22 18 C22 19.98 22 21.96 22 24 C17.05 24 12.1 24 7 24 C7 27.63 7 31.26 7 35 C12.94 35 18.88 35 25 35 C25 37.31 25 39.62 25 42 C16.75 42 8.5 42 0 42 C0 28.14 0 14.28 0 0 Z " fill="#2A2A2B" transform="translate(491,712)"/>
<path d="M0 0 C0.86625 0.495 1.7325 0.99 2.625 1.5 C2.06128586 4.76954202 1.12537734 6.32575883 -1.375 8.5 C-2.19871094 8.01853516 -2.19871094 8.01853516 -3.0390625 7.52734375 C-7.32710465 5.64146568 -11.79500548 5.8504494 -16.375 6.5 C-19.84568806 8.15662034 -21.82207863 10.54495399 -23.75 13.875 C-24.87100043 18.58320182 -24.87111049 22.21011273 -23.125 26.75 C-20.91837861 30.2175479 -19.48200833 31.95311051 -15.43359375 33.00390625 C-9.44821026 33.9927957 -4.91097212 32.8164706 0.625 30.5 C1.615 32.48 2.605 34.46 3.625 36.5 C-1.90717147 41.18106816 -7.57001624 41.97141754 -14.62890625 41.80859375 C-21.51869184 41.03435042 -25.82142181 37.58824637 -30.1484375 32.37890625 C-33.86076087 26.69219434 -34.10812258 21.10738327 -33.375 14.5 C-31.36915231 7.4855386 -26.57571 3.18149898 -20.58203125 -0.64453125 C-14.56642366 -2.97624463 -5.90500934 -2.5584332 0 0 Z " fill="#29292A" transform="translate(471.375,713.5)"/>
<path d="M0 0 C2.17578125 1.10546875 2.17578125 1.10546875 5.30078125 3.10546875 C4.31078125 5.08546875 3.32078125 7.06546875 2.30078125 9.10546875 C1.53765625 8.79609375 0.77453125 8.48671875 -0.01171875 8.16796875 C-4.52294277 6.38446158 -7.82077026 5.69204091 -12.69921875 6.10546875 C-16.61892216 8.21607828 -19.35163744 10.3289249 -21.69921875 14.10546875 C-22.4552009 19.10470555 -22.40380711 24.72661141 -19.69921875 29.10546875 C-17.33541352 32.02082853 -15.6127185 33.00298471 -11.87890625 33.421875 C-6.62720471 33.51865083 -2.52303989 33.32229832 2.30078125 31.10546875 C3.29078125 32.42546875 4.28078125 33.74546875 5.30078125 35.10546875 C4.80078125 36.91796875 4.80078125 36.91796875 3.30078125 39.10546875 C-3.45876203 42.48524039 -10.06940016 43.56113224 -17.3828125 41.26171875 C-23.55493202 38.54708669 -26.93720219 35.24613813 -29.69921875 29.10546875 C-31.73014635 23.01268594 -31.81277628 15.64295484 -29.13671875 9.73046875 C-22.97258964 -0.81459498 -11.47023799 -3.80128003 0 0 Z " fill="#29292A" transform="translate(347.69921875,712.89453125)"/>
<path d="M0 0 C10.56 0 21.12 0 32 0 C32 2.31 32 4.62 32 7 C28.04 7 24.08 7 20 7 C20 18.55 20 30.1 20 42 C17.36 42 14.72 42 12 42 C12 30.45 12 18.9 12 7 C8.04 7 4.08 7 0 7 C0 4.69 0 2.38 0 0 Z " fill="#292829" transform="translate(825,712)"/>
<path d="M0 0 C10.23 0 20.46 0 31 0 C31 2.31 31 4.62 31 7 C27.04 7 23.08 7 19 7 C19 18.55 19 30.1 19 42 C16.69 42 14.38 42 12 42 C12 30.45 12 18.9 12 7 C8.04 7 4.08 7 0 7 C0 4.69 0 2.38 0 0 Z " fill="#2A292B" transform="translate(366,712)"/>
<path d="M0 0 C6.27 0 12.54 0 19 0 C19 7.92 19 15.84 19 24 C12.73 24 6.46 24 0 24 C0 16.08 0 8.16 0 0 Z " fill="#104F45" transform="translate(522,377)"/>
<path d="M0 0 C6.27 0 12.54 0 19 0 C19 7.92 19 15.84 19 24 C12.73 24 6.46 24 0 24 C0 16.08 0 8.16 0 0 Z " fill="#105046" transform="translate(483,377)"/>
<path d="M0 0 C6.27 0 12.54 0 19 0 C19 7.92 19 15.84 19 24 C12.73 24 6.46 24 0 24 C0 16.08 0 8.16 0 0 Z " fill="#0F4F45" transform="translate(522,334)"/>
<path d="M0 0 C6.27 0 12.54 0 19 0 C19 7.92 19 15.84 19 24 C12.73 24 6.46 24 0 24 C0 16.08 0 8.16 0 0 Z " fill="#0E5045" transform="translate(483,334)"/>
<path d="M0 0 C4.29 0 8.58 0 13 0 C13.07445407 4.73222455 13.1287447 9.46410411 13.16479492 14.19677734 C13.17983176 15.80491072 13.20026672 17.41300344 13.22631836 19.02099609 C13.26292822 21.33962064 13.27977722 23.65770049 13.29296875 25.9765625 C13.30845261 26.68930328 13.32393646 27.40204407 13.33988953 28.13638306 C13.34145571 32.83821729 12.50856471 36.02238237 10 40 C5.28780629 43.28757701 1.54122903 43.36941527 -4 43 C-4.66 42.67 -5.32 42.34 -6 42 C-6 39.69 -6 37.38 -6 35 C-5.36191406 34.93941406 -4.72382812 34.87882813 -4.06640625 34.81640625 C-3.24011719 34.73261719 -2.41382813 34.64882813 -1.5625 34.5625 C-0.73878906 34.48128906 0.08492187 34.40007813 0.93359375 34.31640625 C2.98662025 34.21069185 2.98662025 34.21069185 4 33 C4.15806531 31.07521187 4.251135 29.1450079 4.31640625 27.21484375 C4.35830078 26.04501953 4.40019531 24.87519531 4.44335938 23.66992188 C4.50233398 21.82237305 4.50233398 21.82237305 4.5625 19.9375 C4.60568359 18.70193359 4.64886719 17.46636719 4.69335938 16.19335938 C4.79984198 13.12902665 4.90185424 10.06460927 5 7 C3.35 7 1.7 7 0 7 C0 4.69 0 2.38 0 0 Z " fill="#2A2A2B" transform="translate(708,712)"/>
<path d="M0 0 C6.27 0 12.54 0 19 0 C19 7.59 19 15.18 19 23 C12.73 23 6.46 23 0 23 C0 15.41 0 7.82 0 0 Z " fill="#0F4C42" transform="translate(522,420)"/>
<path d="M0 0 C6.27 0 12.54 0 19 0 C19 7.59 19 15.18 19 23 C12.73 23 6.46 23 0 23 C0 15.41 0 7.82 0 0 Z " fill="#0F4E44" transform="translate(483,420)"/>
<path d="M0 0 C5.61 0 11.22 0 17 0 C17 25.74 17 51.48 17 78 C11.39 78 5.78 78 0 78 C0 52.26 0 26.52 0 0 Z M2 2 C2 26.42 2 50.84 2 76 C6.29 76 10.58 76 15 76 C15 51.58 15 27.16 15 2 C10.71 2 6.42 2 2 2 Z " fill="#3A3B3C" transform="translate(544,602)"/>
<path d="M0 0 C5.28 0 10.56 0 16 0 C16 20.79 16 41.58 16 63 C15.67 63 15.34 63 15 63 C15 42.87 15 22.74 15 2 C10.71 2 6.42 2 2 2 C2 26.42 2 50.84 2 76 C16.19 76 30.38 76 45 76 C45 71.71 45 67.42 45 63 C45.33 63 45.66 63 46 63 C46 67.95 46 72.9 46 78 C30.82 78 15.64 78 0 78 C0 52.26 0 26.52 0 0 Z " fill="#222223" transform="translate(238,602)"/>
<path d="M0 0 C2.64 0 5.28 0 8 0 C8 13.86 8 27.72 8 42 C5.36 42 2.72 42 0 42 C0 28.14 0 14.28 0 0 Z " fill="#282829" transform="translate(413,712)"/>
<path d="M0 0 C16.17 0 32.34 0 49 0 C49 4.95 49 9.9 49 15 C38.11 15 27.22 15 16 15 C16 20.94 16 26.88 16 33 C15.67 33 15.34 33 15 33 C14.97111486 29.85418577 14.95324077 26.70840531 14.9375 23.5625 C14.92912109 22.66466797 14.92074219 21.76683594 14.91210938 20.84179688 C14.90888672 19.98779297 14.90566406 19.13378906 14.90234375 18.25390625 C14.89710693 17.46314697 14.89187012 16.6723877 14.88647461 15.85766602 C15 14 15 14 16 13 C18.29151417 12.91209025 20.58572524 12.89305962 22.87890625 12.90234375 C23.90889992 12.90446617 23.90889992 12.90446617 24.95970154 12.90663147 C27.16067801 12.91224521 29.36155409 12.92479993 31.5625 12.9375 C33.05143083 12.94251324 34.54036324 12.94707645 36.02929688 12.95117188 C39.68623075 12.96221907 43.34310558 12.97949287 47 13 C47 9.37 47 5.74 47 2 C31.82 2 16.64 2 1 2 C1 26.42 1 50.84 1 76 C5.62 76 10.24 76 15 76 C15 66.1 15 56.2 15 46 C15.33 46 15.66 46 16 46 C16 56.23 16 66.46 16 77 C10.72 77 5.44 77 0 77 C0 51.59 0 26.18 0 0 Z " fill="#101112" transform="translate(174,602)"/>
<path d="M0 0 C0.66 0 1.32 0 2 0 C2 24.75 2 49.5 2 75 C16.19 75 30.38 75 45 75 C45 71.7 45 68.4 45 65 C45.33 65 45.66 65 46 65 C45.98839844 65.77085937 45.97679687 66.54171875 45.96484375 67.3359375 C45.95582031 68.33882812 45.94679688 69.34171875 45.9375 70.375 C45.92589844 71.37273437 45.91429687 72.37046875 45.90234375 73.3984375 C45.81993398 75.98432453 45.81993398 75.98432453 47 78 C31.49 78 15.98 78 0 78 C0 52.26 0 26.52 0 0 Z " fill="#3A3A3C" transform="translate(299,602)"/>
<path d="M0 0 C5.28 0 10.56 0 16 0 C16 25.08 16 50.16 16 76 C15.34 76 14.68 76 14 76 C14 51.58 14 27.16 14 2 C9.71 2 5.42 2 1 2 C1 25.43 1 48.86 1 73 C0.67 73 0.34 73 0 73 C0 48.91 0 24.82 0 0 Z " fill="#161617" transform="translate(666,602)"/>
<path d="M0 0 C8.81415929 -0.29380531 8.81415929 -0.29380531 12 2 C13.39935013 4.79870027 13.25265405 6.90498792 13 10 C11.14657225 12.55949546 10.06243607 12.97918798 7 14 C4.69 14 2.38 14 0 14 C0 9.38 0 4.76 0 0 Z " fill="#F7F7F7" transform="translate(182,719)"/>
<path d="M0 0 C8.13448006 -0.35887412 8.13448006 -0.35887412 11.5625 1.0625 C13.79083695 4.06591067 13.45264211 6.37886313 13 10 C11.796875 11.70703125 11.796875 11.70703125 10 13 C7.51953125 13.29296875 7.51953125 13.29296875 4.8125 13.1875 C3.224375 13.125625 1.63625 13.06375 0 13 C0 8.71 0 4.42 0 0 Z " fill="#F3F3F4" transform="translate(608,719)"/>
<path d="M0 0 C8.13448006 -0.35887412 8.13448006 -0.35887412 11.5625 1.0625 C13.81151056 4.09377511 13.52134619 6.35057669 13 10 C11.5625 11.9375 11.5625 11.9375 9 13 C5.9521497 13.23081827 3.06655253 13.13528908 0 13 C0 8.71 0 4.42 0 0 Z " fill="#F3F4F4" transform="translate(226,719)"/>
<path d="M0 0 C8.23602484 -0.48447205 8.23602484 -0.48447205 11.5625 1.625 C13.41549639 4.68647229 13.5244772 6.4785102 13 10 C11.796875 11.671875 11.796875 11.671875 10 13 C7.51953125 13.29296875 7.51953125 13.29296875 4.8125 13.1875 C3.224375 13.125625 1.63625 13.06375 0 13 C0 8.71 0 4.42 0 0 Z " fill="#FBFBFB" transform="translate(564,719)"/>
<path d="M0 0 C5.61 0 11.22 0 17 0 C17.66 0.66 18.32 1.32 19 2 C13.39 2 7.78 2 2 2 C2 14.87 2 27.74 2 41 C3.65 41 5.3 41 7 41 C7 36.38 7 31.76 7 27 C7.33 27 7.66 27 8 27 C8 31.95 8 36.9 8 42 C5.36 42 2.72 42 0 42 C0 28.14 0 14.28 0 0 Z " fill="#39393A" transform="translate(174,712)"/>
<path d="M0 0 C2.14642449 3.21963674 3.35881354 6.44429859 4.625 10.0625 C4.85445313 10.69994141 5.08390625 11.33738281 5.3203125 11.99414062 C7 16.738258 7 16.738258 7 19 C2.71 19 -1.58 19 -6 19 C-5.13832722 14.69163608 -3.94423127 10.78564022 -2.4375 6.6875 C-2.20353516 6.04232422 -1.96957031 5.39714844 -1.72851562 4.73242188 C-1.15552993 3.15378781 -0.57820536 1.57672974 0 0 Z " fill="#F6F6F6" transform="translate(284,720)"/>
<path d="M0 0 C0.33 0 0.66 0 1 0 C1 12.54 1 25.08 1 38 C7.93 38 14.86 38 22 38 C22 36.68 22 35.36 22 34 C16.72 34 11.44 34 6 34 C6 33.67 6 33.34 6 33 C11.94 33 17.88 33 24 33 C24 35.31 24 37.62 24 40 C16.08 40 8.16 40 0 40 C0 26.8 0 13.6 0 0 Z " fill="#151516" transform="translate(740,714)"/>
<path d="M0 0 C10.56 0 21.12 0 32 0 C32 2.31 32 4.62 32 7 C31.01 6.67 30.02 6.34 29 6 C29 5.01 29 4.02 29 3 C20.42 3 11.84 3 3 3 C2.67 3.99 2.34 4.98 2 6 C1.67 4.35 1.34 2.7 1 1 C1 2.98 1 4.96 1 7 C0.67 7 0.34 7 0 7 C0 4.69 0 2.38 0 0 Z " fill="#535354" transform="translate(825,712)"/>
<path d="M0 0 C2.06298828 -0.34057617 2.06298828 -0.34057617 4.5703125 -0.29296875 C5.46621094 -0.28330078 6.36210937 -0.27363281 7.28515625 -0.26367188 C8.69087891 -0.2259668 8.69087891 -0.2259668 10.125 -0.1875 C11.06988281 -0.17396484 12.01476562 -0.16042969 12.98828125 -0.14648438 C15.32608779 -0.11106306 17.66276237 -0.06167271 20 0 C12.88610478 11.70615034 12.88610478 11.70615034 8 16 C9.92800911 10.73073238 12.83326936 6.61241202 16 2 C10.72 2 5.44 2 0 2 C0 2.66 0 3.32 0 4 C-0.66 3.67 -1.32 3.34 -2 3 C-1.34 2.01 -0.68 1.02 0 0 Z " fill="#1C1C1D" transform="translate(412,602)"/>
<path d="M0 0 C2.60444348 -0.05394705 5.20776998 -0.09364469 7.8125 -0.125 C8.55048828 -0.14175781 9.28847656 -0.15851562 10.04882812 -0.17578125 C13.91246426 -0.21074628 15.70903668 -0.19397555 19 2 C15.69005287 3.65497356 12.00877 3.10084335 8.375 3.0625 C7.57320312 3.05798828 6.77140625 3.05347656 5.9453125 3.04882812 C3.96350994 3.03703168 1.98174567 3.01909605 0 3 C0 2.01 0 1.02 0 0 Z " fill="#39393A" transform="translate(601,712)"/>
<path d="M0 0 C4.95 0 9.9 0 15 0 C15 1.98 15 3.96 15 6 C10.05 6 5.1 6 0 6 C0 5.67 0 5.34 0 5 C2.97851562 4.70703125 2.97851562 4.70703125 5.95703125 4.4140625 C8.29988142 4.07334609 8.29988142 4.07334609 11 2 C7.37 1.67 3.74 1.34 0 1 C0 0.67 0 0.34 0 0 Z " fill="#141516" transform="translate(498,730)"/>
<path d="M0 0 C6.52307692 0.61538462 6.52307692 0.61538462 8.9375 2.5625 C9.288125 3.036875 9.63875 3.51125 10 4 C9.34 5.32 8.68 6.64 8 8 C7.34 8 6.68 8 6 8 C6 7.01 6 6.02 6 5 C1.71 4.34 -2.58 3.68 -7 3 C-7 2.67 -7 2.34 -7 2 C-4.69 2 -2.38 2 0 2 C0 1.34 0 0.68 0 0 Z " fill="#353536" transform="translate(342,714)"/>
<path d="M0 0 C5.61 0 11.22 0 17 0 C17.33 1.98 17.66 3.96 18 6 C17.34 5.01 16.68 4.02 16 3 C12.65386488 2.41312216 12.65386488 2.41312216 8.875 2.3125 C7.59367188 2.24675781 6.31234375 2.18101562 4.9921875 2.11328125 C4.00476563 2.07589844 3.01734375 2.03851562 2 2 C2.350625 2.763125 2.70125 3.52625 3.0625 4.3125 C4 7 4 7 3 10 C2.01 6.7 1.02 3.4 0 0 Z " fill="#141416" transform="translate(576,602)"/>
<path d="M0 0 C3.29150125 -0.08685287 6.5827096 -0.14033895 9.875 -0.1875 C10.81214844 -0.21263672 11.74929688 -0.23777344 12.71484375 -0.26367188 C14.05869141 -0.27817383 14.05869141 -0.27817383 15.4296875 -0.29296875 C16.25710449 -0.3086792 17.08452148 -0.32438965 17.93701172 -0.34057617 C18.61779785 -0.22818604 19.29858398 -0.1157959 20 0 C20.66 0.99 21.32 1.98 22 3 C21.67 3.99 21.34 4.98 21 6 C20.34 5.01 19.68 4.02 19 3 C16.10154815 2.85861211 13.38543573 2.85786031 10.5 3 C7.61456427 3.14213969 4.89845185 3.14138789 2 3 C1.34 2.01 0.68 1.02 0 0 Z " fill="#1C1D1E" transform="translate(361,602)"/>
<path d="M0 0 C3.3 0 6.6 0 10 0 C10 1.32 10 2.64 10 4 C6.04 4 2.08 4 -2 4 C-1.34 2.68 -0.68 1.36 0 0 Z " fill="#323233" transform="translate(752,748)"/>
<path d="M0 0 C3.12482562 -0.08687496 6.24934246 -0.14034568 9.375 -0.1875 C10.70917969 -0.22520508 10.70917969 -0.22520508 12.0703125 -0.26367188 C13.34648437 -0.27817383 13.34648437 -0.27817383 14.6484375 -0.29296875 C15.82672119 -0.31653442 15.82672119 -0.31653442 17.02880859 -0.34057617 C17.67930176 -0.22818604 18.32979492 -0.1157959 19 0 C19.66 0.99 20.32 1.98 21 3 C14.4 3 7.8 3 1 3 C0.67 2.01 0.34 1.02 0 0 Z " fill="#3C3D3E" transform="translate(412,677)"/>
<path d="M0 0 C4.29 0 8.58 0 13 0 C12.67 0.99 12.34 1.98 12 3 C10.56344146 3.08131463 9.1255517 3.13933559 7.6875 3.1875 C6.48673828 3.23970703 6.48673828 3.23970703 5.26171875 3.29296875 C3 3 3 3 0 0 Z " fill="#343435" transform="translate(332,747)"/>
<path d="M0 0 C1.32 1.32 2.64 2.64 4 4 C2.9024777 6.99324263 2.32317108 7.84610901 -0.625 9.25 C-1.40875 9.4975 -2.1925 9.745 -3 10 C-3 9.34 -3 8.68 -3 8 C-1.68 7.67 -0.36 7.34 1 7 C1 6.01 1 5.02 1 4 C0.01 4 -0.98 4 -2 4 C-2 3.01 -2 2.02 -2 1 C-1.34 0.67 -0.68 0.34 0 0 Z " fill="#1F1F20" transform="translate(349,744)"/>
<path d="M0 0 C0.66 0.33 1.32 0.66 2 1 C2 3.97 2 6.94 2 10 C1.01 10 0.02 10 -1 10 C-1.02689216 8.52093108 -1.04634621 7.04172517 -1.0625 5.5625 C-1.07410156 4.73878906 -1.08570313 3.91507813 -1.09765625 3.06640625 C-1 1 -1 1 0 0 Z " fill="#3B3A3C" transform="translate(646,728)"/>
<path d="M0 0 C2 2 2 2 2.265625 3.875 C2.26046875 4.57625 2.2553125 5.2775 2.25 6 C2.25515625 6.70125 2.2603125 7.4025 2.265625 8.125 C2 10 2 10 0 12 C-1.12256131 9.75487738 -1.13413762 8.48543351 -1.125 6 C-1.12886719 4.948125 -1.12886719 4.948125 -1.1328125 3.875 C-1 2 -1 2 0 0 Z " fill="#353435" transform="translate(687,727)"/>
<path d="M0 0 C1.65 1.65 3.3 3.3 5 5 C1.37 5 -2.26 5 -6 5 C-6 4.34 -6 3.68 -6 3 C-4.02 2.67 -2.04 2.34 0 2 C0 1.34 0 0.68 0 0 Z " fill="#1A1A1B" transform="translate(247,749)"/>
<path d="M0 0 C0.75925781 0.08378906 1.51851563 0.16757812 2.30078125 0.25390625 C3.29464844 0.35574219 4.28851563 0.45757813 5.3125 0.5625 C6.29863281 0.66691406 7.28476562 0.77132812 8.30078125 0.87890625 C11.09930347 1.16602527 11.09930347 1.16602527 14 0 C13.67 1.32 13.34 2.64 13 4 C8.71 3.01 4.42 2.02 0 1 C0 0.67 0 0.34 0 0 Z " fill="#343436" transform="translate(458,716)"/>
<path d="M0 0 C2.64 0 5.28 0 8 0 C8 0.66 8 1.32 8 2 C5.04335481 3.4783226 2.25770263 3.06032783 -1 3 C-0.67 2.01 -0.34 1.02 0 0 Z " fill="#2F2F30" transform="translate(183,715)"/>
<path d="M0 0 C1.93166016 0.01740234 1.93166016 0.01740234 3.90234375 0.03515625 C5.19269531 0.04417969 6.48304688 0.05320312 7.8125 0.0625 C8.81152344 0.07410156 9.81054688 0.08570313 10.83984375 0.09765625 C10.83984375 0.42765625 10.83984375 0.75765625 10.83984375 1.09765625 C9.79183594 1.18853516 9.79183594 1.18853516 8.72265625 1.28125 C7.81257812 1.36503906 6.9025 1.44882812 5.96484375 1.53515625 C5.05992187 1.61636719 4.155 1.69757812 3.22265625 1.78125 C0.82873514 1.9675491 0.82873514 1.9675491 -1.16015625 3.09765625 C-2.15015625 2.43765625 -3.14015625 1.77765625 -4.16015625 1.09765625 C-3.16015625 0.09765625 -3.16015625 0.09765625 0 0 Z " fill="#141415" transform="translate(795.16015625,711.90234375)"/>
<path d="M0 0 C0.66 0.33 1.32 0.66 2 1 C1.74438677 3.3431213 1.40729228 5.67843403 1 8 C0.01 8.495 0.01 8.495 -1 9 C-0.67 6.03 -0.34 3.06 0 0 Z " fill="#252627" transform="translate(630,655)"/>
</svg>
