<?xml version="1.0" standalone="no"?>
<!DOCTYPE svg PUBLIC "-//W3C//DTD SVG 20010904//EN"
 "http://www.w3.org/TR/2001/REC-SVG-20010904/DTD/svg10.dtd">
<svg version="1.0" xmlns="http://www.w3.org/2000/svg"
 width="356.000000pt" height="383.000000pt" viewBox="0 0 356.000000 383.000000"
 preserveAspectRatio="xMidYMid meet">

<g transform="translate(0.000000,383.000000) scale(0.100000,-0.100000)"
fill="#000000" stroke="none">
<path d="M1555 3704 c-127 -19 -239 -56 -363 -119 -346 -177 -583 -485 -675
-880 -21 -88 -21 -112 -24 -1237 l-4 -1148 -162 0 -162 0 2 -122 2 -122 1613
1 1613 1 0 121 1 121 -163 0 -162 0 -4 1158 c-3 1139 -3 1158 -24 1242 -91
363 -276 625 -576 813 -249 157 -590 221 -912 171z m406 -249 c377 -66 689
-334 808 -695 56 -171 54 -124 58 -1327 l4 -1113 -170 0 -171 0 0 1195 0 1195
-710 0 -710 0 0 -1195 0 -1195 -162 0 -163 0 2 1116 c1 991 3 1125 18 1197 44
218 139 392 298 544 96 92 144 127 253 182 196 99 430 134 645 96z m309 -2060
l0 -1075 -130 0 -130 0 0 290 0 290 -225 0 -225 0 0 -290 0 -290 -130 0 -130
0 0 1075 0 1075 485 0 485 0 0 -1075z"/>
<path d="M1490 2150 l0 -120 95 0 95 0 0 120 0 120 -95 0 -95 0 0 -120z"/>
<path d="M1880 2150 l0 -120 95 0 95 0 0 120 0 120 -95 0 -95 0 0 -120z"/>
<path d="M1490 1720 l0 -120 95 0 95 0 0 120 0 120 -95 0 -95 0 0 -120z"/>
<path d="M1880 1720 l0 -120 95 0 95 0 0 120 0 120 -95 0 -95 0 0 -120z"/>
<path d="M1490 1295 l0 -115 98 0 97 0 0 115 0 115 -97 0 -98 0 0 -115z"/>
<path d="M1880 1295 l0 -115 95 0 95 0 0 115 0 115 -95 0 -95 0 0 -115z"/>
</g>
</svg>
